<?xml version="1.0" encoding="UTF-8" standalone="no"?>
<!-- Created with Inkscape (http://www.inkscape.org/) -->

<svg
   xmlns:dc="http://purl.org/dc/elements/1.1/"
   xmlns:cc="http://creativecommons.org/ns#"
   xmlns:rdf="http://www.w3.org/1999/02/22-rdf-syntax-ns#"
   xmlns:svg="http://www.w3.org/2000/svg"
   xmlns="http://www.w3.org/2000/svg"
   xmlns:xlink="http://www.w3.org/1999/xlink"
   xmlns:sodipodi="http://sodipodi.sourceforge.net/DTD/sodipodi-0.dtd"
   xmlns:inkscape="http://www.inkscape.org/namespaces/inkscape"
   width="744.09448819"
   height="1052.3622047"
   id="svg3669"
   version="1.1"
   inkscape:version="0.48.2 r9819"
   sodipodi:docname="SeleniumX.svg">
  <defs
     id="defs3671">
    <linearGradient
       id="linearGradient3308">
      <stop
         id="stop3310"
         offset="0"
         style="stop-color:#212121;stop-opacity:1;" />
      <stop
         id="stop3312"
         offset="1"
         style="stop-color:#b8b8b8;stop-opacity:1;" />
    </linearGradient>
    <linearGradient
       id="linearGradient3605">
      <stop
         style="stop-color:#ffffff;stop-opacity:1;"
         offset="0"
         id="stop3607" />
      <stop
         style="stop-color:#ffffff;stop-opacity:0;"
         offset="1"
         id="stop3609" />
    </linearGradient>
    <linearGradient
       id="linearGradient3160">
      <stop
         style="stop-color:#4b4b4b;stop-opacity:1;"
         offset="0"
         id="stop3162" />
      <stop
         style="stop-color:#ffffff;stop-opacity:1;"
         offset="1"
         id="stop3164" />
    </linearGradient>
    <linearGradient
       id="linearGradient5119">
      <stop
         style="stop-color:#f8f7f6;stop-opacity:1;"
         offset="0"
         id="stop5121" />
      <stop
         id="stop5127"
         offset="0.5"
         style="stop-color:#dad4d0;stop-opacity:1;" />
      <stop
         style="stop-color:#7c6a5e;stop-opacity:1;"
         offset="1"
         id="stop5123" />
    </linearGradient>
    <linearGradient
       id="linearGradient4240">
      <stop
         id="stop4242"
         offset="0"
         style="stop-color:#f2dc84;stop-opacity:1;" />
      <stop
         style="stop-color:#f3cf42;stop-opacity:1"
         offset="0.5"
         id="stop4244" />
      <stop
         id="stop4246"
         offset="1"
         style="stop-color:#6b5a12;stop-opacity:1;" />
    </linearGradient>
    <linearGradient
       id="linearGradient5133">
      <stop
         id="stop5135"
         offset="0"
         style="stop-color:#4c433b;stop-opacity:1;" />
      <stop
         style="stop-color:#817166;stop-opacity:1;"
         offset="0.5"
         id="stop5137" />
      <stop
         id="stop5139"
         offset="1"
         style="stop-color:#000000;stop-opacity:1;" />
    </linearGradient>
    <linearGradient
       id="linearGradient5157">
      <stop
         id="stop5159"
         offset="0"
         style="stop-color:#bbbbbb;stop-opacity:1;" />
      <stop
         style="stop-color:#d5d5d5;stop-opacity:1;"
         offset="0.5"
         id="stop5161" />
      <stop
         id="stop5163"
         offset="1"
         style="stop-color:#3e3e3e;stop-opacity:1;" />
    </linearGradient>
    <linearGradient
       id="linearGradient5149">
      <stop
         id="stop5151"
         offset="0"
         style="stop-color:#c77898;stop-opacity:1;" />
      <stop
         style="stop-color:#c17e99;stop-opacity:1;"
         offset="0.5"
         id="stop5153" />
      <stop
         id="stop5155"
         offset="1"
         style="stop-color:#7a455a;stop-opacity:1;" />
    </linearGradient>
    <radialGradient
       inkscape:collect="always"
       xlink:href="#linearGradient3308"
       id="radialGradient3983"
       gradientUnits="userSpaceOnUse"
       gradientTransform="matrix(11.60017,-8.917595e-8,7.23316e-8,9.4090262,-757.86736,-1543.8267)"
       cx="72.080688"
       cy="237.3118"
       fx="72.080688"
       fy="237.3118"
       r="89.823624" />
    <radialGradient
       inkscape:collect="always"
       xlink:href="#linearGradient3605"
       id="radialGradient3985"
       gradientUnits="userSpaceOnUse"
       gradientTransform="translate(3.136538,4.704807)"
       cx="150.5538"
       cy="160.69841"
       fx="150.5538"
       fy="160.69841"
       r="312.59076" />
    <linearGradient
       inkscape:collect="always"
       xlink:href="#linearGradient3160"
       id="linearGradient3987"
       gradientUnits="userSpaceOnUse"
       gradientTransform="matrix(3.4800508,0,0,3.4800508,-164.72229,-124.26474)"
       x1="160.79538"
       y1="229.54926"
       x2="160.79538"
       y2="62.100281" />
    <linearGradient
       id="linearGradient2510"
       inkscape:collect="always">
      <stop
         id="stop2512"
         offset="0"
         style="stop-color:#ffffff;stop-opacity:1;" />
      <stop
         id="stop2514"
         offset="1"
         style="stop-color:#ffffff;stop-opacity:0;" />
    </linearGradient>
    <linearGradient
       id="linearGradient4990">
      <stop
         id="stop4992"
         offset="0.0000000"
         style="stop-color:#ff8a2b;stop-opacity:1.0000000;" />
      <stop
         id="stop4994"
         offset="1.0000000"
         style="stop-color:#833a00;stop-opacity:1.0000000;" />
    </linearGradient>
    <linearGradient
       id="linearGradient3178">
      <stop
         id="stop3180"
         offset="0.0000000"
         style="stop-color:#ff8a2b;stop-opacity:1.0000000;" />
      <stop
         id="stop3182"
         offset="1.0000000"
         style="stop-color:#833a00;stop-opacity:1.0000000;" />
    </linearGradient>
    <linearGradient
       id="linearGradient3185">
      <stop
         id="stop3187"
         offset="0.0000000"
         style="stop-color:#ff8a2b;stop-opacity:1.0000000;" />
      <stop
         id="stop3189"
         offset="1.0000000"
         style="stop-color:#833a00;stop-opacity:1.0000000;" />
    </linearGradient>
    <linearGradient
       id="linearGradient5018">
      <stop
         id="stop5020"
         offset="0"
         style="stop-color:#aaaaaa;stop-opacity:1;" />
      <stop
         id="stop5022"
         offset="1.0000000"
         style="stop-color:#cdcdcd;stop-opacity:1.0000000;" />
    </linearGradient>
    <linearGradient
       id="linearGradient5411"
       inkscape:collect="always">
      <stop
         id="stop5413"
         offset="0"
         style="stop-color:#ffffff;stop-opacity:1;" />
      <stop
         id="stop5415"
         offset="1"
         style="stop-color:#ffffff;stop-opacity:0;" />
    </linearGradient>
    <linearGradient
       id="linearGradient3200">
      <stop
         id="stop3202"
         offset="0"
         style="stop-color:#aaaaaa;stop-opacity:1;" />
      <stop
         id="stop3204"
         offset="1.0000000"
         style="stop-color:#cdcdcd;stop-opacity:1.0000000;" />
    </linearGradient>
    <linearGradient
       id="linearGradient4254"
       inkscape:collect="always">
      <stop
         id="stop4256"
         offset="0"
         style="stop-color:#ffffff;stop-opacity:1;" />
      <stop
         id="stop4258"
         offset="1"
         style="stop-color:#ffffff;stop-opacity:0;" />
    </linearGradient>
    <linearGradient
       id="linearGradient5069"
       inkscape:collect="always">
      <stop
         id="stop5071"
         offset="0"
         style="stop-color:#000000;stop-opacity:1;" />
      <stop
         id="stop5073"
         offset="1"
         style="stop-color:#000000;stop-opacity:0;" />
    </linearGradient>
    <linearGradient
       id="linearGradient4244">
      <stop
         id="stop4246-5"
         offset="0.0000000"
         style="stop-color:#e4e4e4;stop-opacity:1.0000000;" />
      <stop
         id="stop4248"
         offset="1.0000000"
         style="stop-color:#d3d3d3;stop-opacity:1.0000000;" />
    </linearGradient>
    <linearGradient
       id="linearGradient4228">
      <stop
         id="stop4230"
         offset="0.0000000"
         style="stop-color:#bbbbbb;stop-opacity:1.0000000;" />
      <stop
         id="stop4232"
         offset="1.0000000"
         style="stop-color:#9f9f9f;stop-opacity:1.0000000;" />
    </linearGradient>
    <linearGradient
       id="linearGradient5048">
      <stop
         style="stop-color:black;stop-opacity:0;"
         offset="0"
         id="stop5050" />
      <stop
         id="stop5056"
         offset="0.5"
         style="stop-color:black;stop-opacity:1;" />
      <stop
         style="stop-color:black;stop-opacity:0;"
         offset="1"
         id="stop5052" />
    </linearGradient>
    <linearGradient
       inkscape:collect="always"
       id="linearGradient5060">
      <stop
         style="stop-color:black;stop-opacity:1;"
         offset="0"
         id="stop5062" />
      <stop
         style="stop-color:black;stop-opacity:0;"
         offset="1"
         id="stop5064" />
    </linearGradient>
    <radialGradient
       inkscape:collect="always"
       xlink:href="#linearGradient5060"
       id="radialGradient6719"
       gradientUnits="userSpaceOnUse"
       gradientTransform="matrix(-2.774389,0,0,1.969706,112.7623,-872.8854)"
       cx="605.71429"
       cy="486.64789"
       fx="605.71429"
       fy="486.64789"
       r="117.14286" />
    <radialGradient
       r="117.14286"
       fy="486.64789"
       fx="605.71429"
       cy="486.64789"
       cx="605.71429"
       gradientTransform="matrix(-2.774389,0,0,1.969706,112.7623,-872.8854)"
       gradientUnits="userSpaceOnUse"
       id="radialGradient3261"
       xlink:href="#linearGradient5060"
       inkscape:collect="always" />
    <linearGradient
       inkscape:collect="always"
       xlink:href="#linearGradient4228"
       id="linearGradient4323"
       gradientUnits="userSpaceOnUse"
       gradientTransform="translate(715.625,710.97345)"
       x1="7.6046205"
       y1="28.481176"
       x2="36.183067"
       y2="40.943935" />
    <radialGradient
       inkscape:collect="always"
       xlink:href="#linearGradient4244"
       id="radialGradient4325"
       gradientUnits="userSpaceOnUse"
       gradientTransform="matrix(1.286242,0.781698,-0.710782,1.169552,713.27065,706.09658)"
       cx="15.571491"
       cy="2.958519"
       fx="15.571491"
       fy="2.958519"
       r="20.935818" />
    <linearGradient
       inkscape:collect="always"
       xlink:href="#linearGradient4254"
       id="linearGradient4327"
       gradientUnits="userSpaceOnUse"
       gradientTransform="translate(715.625,710.97345)"
       x1="12.378357"
       y1="4.433136"
       x2="44.0961"
       y2="47.620636" />
    <linearGradient
       inkscape:collect="always"
       xlink:href="#linearGradient5018"
       id="linearGradient4329"
       gradientUnits="userSpaceOnUse"
       gradientTransform="translate(715.625,702.29298)"
       x1="28.46875"
       y1="28.125"
       x2="20"
       y2="26.375" />
    <linearGradient
       inkscape:collect="always"
       xlink:href="#linearGradient5018"
       id="linearGradient4331"
       gradientUnits="userSpaceOnUse"
       gradientTransform="translate(715.625,702.29298)"
       x1="26.3125"
       y1="17.5"
       x2="23.0625"
       y2="17.5" />
    <linearGradient
       inkscape:collect="always"
       xlink:href="#linearGradient2510"
       id="linearGradient4333"
       gradientUnits="userSpaceOnUse"
       gradientTransform="translate(715.625,702.91798)"
       x1="21.057629"
       y1="2.4374962"
       x2="26.28611"
       y2="29.562496" />
    <linearGradient
       inkscape:collect="always"
       xlink:href="#linearGradient5048"
       id="linearGradient4335"
       gradientUnits="userSpaceOnUse"
       gradientTransform="matrix(2.774389,0,0,1.969706,-1892.179,-872.8854)"
       x1="302.85715"
       y1="366.64789"
       x2="302.85715"
       y2="609.50507" />
    <radialGradient
       inkscape:collect="always"
       xlink:href="#linearGradient5060"
       id="radialGradient4337"
       gradientUnits="userSpaceOnUse"
       gradientTransform="matrix(2.774389,0,0,1.969706,-1891.633,-872.8854)"
       cx="605.71429"
       cy="486.64789"
       fx="605.71429"
       fy="486.64789"
       r="117.14286" />
    <radialGradient
       inkscape:collect="always"
       xlink:href="#linearGradient5069"
       id="radialGradient4339"
       gradientUnits="userSpaceOnUse"
       gradientTransform="matrix(1,0,0,0.624277,0,12.28944)"
       cx="10.363534"
       cy="32.708817"
       fx="10.363534"
       fy="32.708817"
       r="3.8227961" />
    <linearGradient
       inkscape:collect="always"
       xlink:href="#linearGradient5411"
       id="linearGradient4341"
       gradientUnits="userSpaceOnUse"
       x1="24.237061"
       y1="31.712437"
       x2="24.237061"
       y2="28.359171" />
    <radialGradient
       inkscape:collect="always"
       xlink:href="#linearGradient4990"
       id="radialGradient4343"
       gradientUnits="userSpaceOnUse"
       gradientTransform="matrix(2.385563,0,0,2.385563,-30.8437,-6.089588)"
       cx="22.693991"
       cy="4.9365706"
       fx="22.693991"
       fy="4.9365706"
       r="6.6291261" />
    <linearGradient
       inkscape:collect="always"
       xlink:href="#linearGradient4990"
       id="linearGradient4345"
       gradientUnits="userSpaceOnUse"
       x1="23.599133"
       y1="3.4934268"
       x2="26.032751"
       y2="13.095204" />
    <linearGradient
       inkscape:collect="always"
       xlink:href="#linearGradient4990"
       id="linearGradient4347"
       gradientUnits="userSpaceOnUse"
       x1="24.395184"
       y1="11.50959"
       x2="17.766058"
       y2="-6.4607105" />
  </defs>
  <sodipodi:namedview
     id="base"
     pagecolor="#ffffff"
     bordercolor="#666666"
     borderopacity="1.0"
     inkscape:pageopacity="0.0"
     inkscape:pageshadow="2"
     inkscape:zoom="0.35"
     inkscape:cx="350"
     inkscape:cy="520"
     inkscape:document-units="px"
     showgrid="false"
     inkscape:window-width="859"
     inkscape:window-height="605"
     inkscape:window-x="288"
     inkscape:window-y="564"
     inkscape:window-maximized="0"
     inkscape:current-layer="svg3669" />
  <metadata
     id="metadata3674">
    <rdf:RDF>
      <cc:Work
         rdf:about="">
        <dc:format>image/svg+xml</dc:format>
        <dc:type
           rdf:resource="http://purl.org/dc/dcmitype/StillImage" />
        <dc:title></dc:title>
      </cc:Work>
    </rdf:RDF>
  </metadata>
  <g
     id="g4264"
     transform="translate(-15.780871,147.92343)"
     inkscape:export-filename="/Users/shorn/dev/selenium.x/gfx/Selenium_x.png"
     inkscape:export-xdpi="55.738682"
     inkscape:export-ydpi="55.738682">
    <rect
       rx="116.4919"
       ry="104.00832"
       y="63.864677"
       x="78.280815"
       height="625.18152"
       width="625.18152"
       id="rect4266"
       style="fill:url(#radialGradient3983);fill-opacity:1;fill-rule:nonzero;stroke:#2b2b2b;stroke-width:17.4002533;stroke-linecap:butt;stroke-linejoin:miter;stroke-miterlimit:4;stroke-opacity:1;stroke-dasharray:none;stroke-dashoffset:0;marker:none;visibility:visible;display:inline;overflow:visible;enable-background:accumulate" />
    <rect
       rx="114.92363"
       ry="114.9862"
       y="70.801857"
       x="84.181297"
       height="618.90845"
       width="618.90857"
       id="rect4268"
       style="opacity:0.58499995;fill:url(#radialGradient3985);fill-opacity:1;fill-rule:nonzero;stroke:none;stroke-width:17.4002533;marker:none;visibility:visible;display:inline;overflow:visible;enable-background:accumulate" />
    <rect
       ry="111.91522"
       y="91.847397"
       x="97.699615"
       height="432.73627"
       width="584.05304"
       id="rect4270"
       style="opacity:0.81000001;fill:url(#linearGradient3987);fill-opacity:1;fill-rule:nonzero;stroke:none;stroke-width:5;marker:none;visibility:visible;display:inline;overflow:visible;enable-background:accumulate" />
    <path
       sodipodi:nodetypes="cccsscssssssccsssscssscccccsssccsssssccccccscc"
       id="path4272"
       d="m 343.95169,399.15619 -57.39698,19.20267 c -7.7375,-22.78975 -24.12658,-34.18473 -49.16727,-34.18497 -26.72908,2.4e-4 -40.09356,8.65198 -40.09348,25.95525 -8e-5,6.89348 2.49696,12.73164 7.49115,17.51453 4.99401,4.78327 16.28347,8.93329 33.86844,12.45008 29.40173,5.90869 50.92558,11.88753 64.57161,17.93655 13.64565,6.04936 25.14613,15.79136 34.50149,29.22604 9.35492,13.43496 14.03249,28.45241 14.03272,45.05241 -2.3e-4,26.02566 -10.02359,48.53426 -30.07011,67.52587 -20.04693,18.99165 -49.76531,28.48747 -89.15524,28.48747 -29.54265,0 -54.68898,-6.71741 -75.43905,-20.15225 -20.75016,-13.4348 -34.43117,-33.37601 -41.04307,-59.82369 l 62.46143,-14.13823 c 7.03387,26.86973 26.58822,40.30455 58.66309,40.3045 15.47454,5e-5 27.0102,-2.98937 34.60701,-8.96828 7.59649,-5.97879 11.39482,-13.11823 11.39499,-21.41836 -1.7e-4,-8.44064 -3.4468,-14.98221 -10.3399,-19.6247 -6.89342,-4.6423 -20.18756,-9.00334 -39.88246,-13.08314 -36.71727,-7.59654 -62.88352,-17.9716 -78.49882,-31.1252 -15.61538,-13.15332 -23.42305,-32.39114 -23.42304,-57.71351 -1e-5,-25.60333 9.31996,-47.19752 27.95993,-64.78263 18.63989,-17.58458 43.9269,-26.377 75.86109,-26.37729 56.55274,2.9e-4 92.91819,22.57923 109.09647,67.73688 l 0,0 z m 226.13886,128.72118 -137.16191,0 c -0.14076,3.79842 -0.2111,7.10437 -0.21102,9.91786 -8e-5,15.19339 4.04444,26.65871 12.13356,34.39599 8.08893,7.73738 17.76059,11.60605 29.01502,11.60601 20.96101,4e-5 33.55175,-11.18392 37.77228,-33.55192 l 56.97494,4.22037 c -15.89691,49.23763 -48.18268,73.85641 -96.85741,73.85641 -21.24261,0 -39.28466,-4.25553 -54.1262,-12.76661 -14.84167,-8.51105 -27.08072,-20.92595 -36.71719,-37.24473 -9.63652,-16.31869 -14.45477,-35.87303 -14.45475,-58.6631 -2e-5,-33.90347 9.67165,-61.26548 29.01502,-82.08612 19.34328,-20.82027 44.20825,-31.2305 74.59498,-31.23071 27.43223,2.1e-4 50.96075,9.67188 70.58562,29.01501 19.6245,19.34352 29.43684,50.18733 29.43706,92.53154 l 0,0 z m -137.37293,-36.50617 75.75558,0 c -1.96966,-29.26105 -13.99769,-43.89164 -36.08413,-43.89181 -23.63415,1.7e-4 -36.85795,14.63076 -39.67145,43.89181 l 0,0 z"
       style="font-size:432.16552734px;font-style:normal;font-variant:normal;font-weight:normal;font-stretch:normal;fill:#eeeeee;fill-opacity:1;stroke:#000000;stroke-width:10;stroke-linecap:butt;stroke-linejoin:miter;stroke-miterlimit:4;stroke-opacity:0.58536545;stroke-dasharray:none;font-family:Franklin Gothic Demi;-inkscape-font-specification:Franklin Gothic Demi"
       inkscape:connector-curvature="0" />
  </g>
  <path
     transform="matrix(0.633635,0,0,0.633635,8.649484,3.83312)"
     d="m 24.5625,24.65625 c -4.002874,0 -7.25,1.668497 -7.25,3.71875 0,2.050253 3.247126,3.71875 7.25,3.71875 4.002874,0 7.25,-1.668497 7.25,-3.71875 0,-2.050253 -3.247126,-3.71875 -7.25,-3.71875 z"
     inkscape:href="#path4345"
     id="path5419"
     style="color:#000000;fill:none;stroke:url(#linearGradient4341);stroke-width:1.07779324px;stroke-linecap:butt;stroke-linejoin:miter;stroke-miterlimit:4;stroke-opacity:1;stroke-dasharray:none;stroke-dashoffset:0;marker:none;visibility:visible;display:inline;overflow:visible;font-family:Bitstream Vera Sans"
     xlink:href="#path4345"
     inkscape:original="M 24.5625 24.65625 C 20.559626 24.65625 17.3125 26.324747 17.3125 28.375 C 17.3125 30.425253 20.559626 32.09375 24.5625 32.09375 C 28.565374 32.09375 31.8125 30.425253 31.8125 28.375 C 31.8125 26.324747 28.565374 24.65625 24.5625 24.65625 z "
     inkscape:radius="0"
     sodipodi:type="inkscape:offset"
     inkscape:export-filename="/Users/shorn/dev/selenium.x/gfx/Selenium_x.png"
     inkscape:export-xdpi="55.738682"
     inkscape:export-ydpi="55.738682" />
  <g
     id="g4349"
     transform="matrix(6.4989577,0,0,6.9864457,-4223.5144,-4818.6095)"
     inkscape:export-filename="/Users/shorn/dev/selenium.x/gfx/Selenium_x.png"
     inkscape:export-xdpi="55.738682"
     inkscape:export-ydpi="55.738682">
    <g
       id="g6707"
       transform="matrix(0.02354239,0,0,0.02086758,760.93944,743.19658)">
      <rect
         y="-150.69685"
         x="-1559.2523"
         height="478.35718"
         width="1339.6335"
         id="rect6709"
         style="opacity:0.40206185;color:#000000;fill:url(#linearGradient4335);fill-opacity:1;fill-rule:nonzero;stroke:none;stroke-width:1;marker:none;visibility:visible;display:inline;overflow:visible" />
      <path
         sodipodi:nodetypes="cccc"
         id="path6711"
         d="m -219.61876,-150.68038 c 0,0 0,478.33079 0,478.33079 142.874166,0.90045 345.40022,-107.16966 345.40014,-239.196175 0,-132.026537 -159.436816,-239.134595 -345.40014,-239.134615 z"
         style="opacity:0.40206185;color:#000000;fill:url(#radialGradient4337);fill-opacity:1;fill-rule:nonzero;stroke:none;stroke-width:1;marker:none;visibility:visible;display:inline;overflow:visible"
         inkscape:connector-curvature="0" />
      <path
         style="opacity:0.40206185;color:#000000;fill:url(#radialGradient3261);fill-opacity:1;fill-rule:nonzero;stroke:none;stroke-width:1;marker:none;visibility:visible;display:inline;overflow:visible"
         d="m -1559.2523,-150.68038 c 0,0 0,478.33079 0,478.33079 -142.8742,0.90045 -345.4002,-107.16966 -345.4002,-239.196175 0,-132.026537 159.4368,-239.134595 345.4002,-239.134615 z"
         id="path6713"
         sodipodi:nodetypes="cccc"
         inkscape:connector-curvature="0" />
    </g>
    <path
       style="fill:none;stroke:#535353;stroke-width:2;stroke-linecap:round;stroke-linejoin:round;stroke-miterlimit:4;stroke-opacity:1;stroke-dasharray:none"
       d="m 724.91069,724.93607 c -0.625,0 -1.03125,0.29018 -1.28125,0.84375 0,0 -4.46875,11.10356 -4.46875,11.10356 0,0 -0.25,0.67156 -0.25,1.78125 0,0 0,5.64997 0,5.64997 0,1.08262 0.65779,1.625 1.65625,1.625 l 38.5625,0 c 0.98485,0 1.59375,-0.71818 1.59375,-1.84375 l 0,-5.64997 c 0,0 0.10596,-0.77042 -0.0937,-1.3125 l -4.71875,-11.19731 c -0.18453,-0.51191 -0.63691,-0.9881 -1.125,-1 l -29.875,0 z"
       id="path4196"
       sodipodi:nodetypes="cccsccccccccc"
       inkscape:connector-curvature="0" />
    <path
       style="fill:url(#linearGradient4323);fill-opacity:1;fill-rule:evenodd;stroke:none"
       d="m 718.89859,737.97026 0.7646,-0.69222 37.60969,0.0625 3.46241,0.3173 0,6.43853 c 0,1.12557 -0.60702,1.84333 -1.59187,1.84333 l -38.58299,0 c -0.99846,0 -1.66184,-0.54205 -1.66184,-1.62466 l 0,-6.34478 z"
       id="path4170"
       sodipodi:nodetypes="ccccccccc"
       inkscape:connector-curvature="0" />
    <path
       style="color:#000000;fill:none;stroke:#666666;stroke-width:2;stroke-linecap:butt;stroke-linejoin:miter;stroke-miterlimit:4;stroke-opacity:1;stroke-dasharray:none;stroke-dashoffset:0;marker:none;visibility:visible;display:inline;overflow:visible;font-family:Bitstream Vera Sans"
       d="m 740.1875,722.66798 c -2.62466,0 -4.70975,1.05192 -4.875,2.375 l -0.0625,0 c 0,0 -1.28125,5.1875 -1.28125,5.1875 -0.21875,1.09375 2.07874,3.03125 6.21875,3.03125 4.17139,0 6.5625,-1.96875 6.15625,-3.4375 0,0 -1.1875,-4.78125 -1.1875,-4.78125 l -0.0625,0 c -0.16364,-1.32388 -2.28049,-2.375 -4.90625,-2.375 z"
       id="path5030"
       inkscape:connector-curvature="0" />
    <path
       style="fill:url(#radialGradient4325);fill-opacity:1;fill-rule:evenodd;stroke:none"
       d="m 719.17408,736.88785 c -0.71428,1.46429 -6.1e-4,2.39286 1.03572,2.39286 0,0 39,0 39,0 1.11904,-0.0238 1.84523,-1.01191 1.42857,-2.14286 l -4.71429,-11.21071 c -0.18452,-0.5119 -0.65476,-0.98809 -1.14286,-1 l -29.85714,0 c -0.625,0 -1.03571,0.30357 -1.28571,0.85715 0,0 -4.46429,11.10356 -4.46429,11.10356 z"
       id="path3093"
       sodipodi:nodetypes="csccccccs"
       inkscape:connector-curvature="0" />
    <path
       sodipodi:type="arc"
       style="color:#000000;fill:url(#radialGradient4339);fill-opacity:1;fill-rule:evenodd;stroke:none;stroke-width:2;marker:none;visibility:visible;display:inline;overflow:visible;font-family:Bitstream Vera Sans"
       id="path5067"
       sodipodi:cx="10.363534"
       sodipodi:cy="32.708817"
       sodipodi:rx="3.8227961"
       sodipodi:ry="2.3864853"
       d="m 14.18633,32.708817 c 0,1.318019 -1.711524,2.386485 -3.822796,2.386485 -2.111272,0 -3.8227961,-1.068466 -3.8227961,-2.386485 0,-1.31802 1.7115241,-2.386486 3.8227961,-2.386486 2.111272,0 3.822796,1.068466 3.822796,2.386486 z"
       transform="translate(715.77968,703.20524)" />
    <path
       style="fill:#ffffff;fill-opacity:1;fill-rule:evenodd;stroke:none"
       d="m 760.42116,736.60213 c 0.0635,1.24998 -0.414,2.31584 -1.32212,2.34375 0,0 -38.11871,0 -38.11871,0 -1.28923,0 -1.86774,-0.32494 -2.08405,-0.86805 0.0918,0.94433 0.82582,1.6493 2.08405,1.6493 0,0 38.11871,0 38.11871,0 1.07601,-0.0331 1.75281,-1.42402 1.35217,-2.99479 l -0.03,-0.13021 z"
       id="path4201"
       sodipodi:nodetypes="cccccccc"
       inkscape:connector-curvature="0" />
    <path
       sodipodi:nodetypes="cccsccccccccc"
       id="path4252"
       d="m 725.26751,725.38916 c -0.60169,0 -0.99279,0.27936 -1.23346,0.81229 0,0 -4.41502,10.59073 -4.41502,10.59073 0,0 -0.24067,0.64651 -0.24067,1.71482 0,0 0,5.2901 0,5.2901 0,1.35474 0.44405,1.6269 1.59448,1.6269 l 37.6869,0 c 1.32313,0 1.53432,-0.3164 1.53432,-1.8375 l 0,-5.29009 c 0,0 0.10201,-0.74169 -0.0903,-1.26355 l -4.5932,-10.80599 c -0.17764,-0.49281 -0.55065,-0.82625 -1.02054,-0.83771 l -29.22256,0 z"
       style="fill:none;stroke:url(#linearGradient4327);stroke-width:1.00000024;stroke-linecap:round;stroke-linejoin:round;stroke-miterlimit:4;stroke-opacity:1;stroke-dasharray:none"
       inkscape:connector-curvature="0" />
    <path
       sodipodi:type="arc"
       style="color:#000000;fill:#ffffff;fill-opacity:0.48022599;fill-rule:evenodd;stroke:none;stroke-width:1px;marker:none;visibility:visible;display:inline;overflow:visible;font-family:Bitstream Vera Sans"
       id="path4341"
       sodipodi:cx="24.57196"
       sodipodi:cy="28.377787"
       sodipodi:rx="7.2478447"
       sodipodi:ry="3.7123106"
       d="m 31.819805,28.377787 c 0,2.050252 -3.24497,3.71231 -7.247845,3.71231 -4.002874,0 -7.247844,-1.662058 -7.247844,-3.71231 0,-2.050253 3.24497,-3.712311 7.247844,-3.712311 4.002875,0 7.247845,1.662058 7.247845,3.712311 z"
       transform="matrix(1.581301,0,0,1.581301,701.3413,686.32728)" />
    <path
       transform="matrix(0.853659,0,0,0.853659,719.2209,705.85116)"
       d="m 31.819805,28.377787 c 0,2.050252 -3.24497,3.71231 -7.247845,3.71231 -4.002874,0 -7.247844,-1.662058 -7.247844,-3.71231 0,-2.050253 3.24497,-3.712311 7.247844,-3.712311 4.002875,0 7.247845,1.662058 7.247845,3.712311 z"
       sodipodi:ry="3.7123106"
       sodipodi:rx="7.2478447"
       sodipodi:cy="28.377787"
       sodipodi:cx="24.57196"
       id="path4343"
       style="color:#000000;fill:#c9c9c9;fill-opacity:1;fill-rule:evenodd;stroke:none;stroke-width:1px;marker:none;visibility:visible;display:inline;overflow:visible;font-family:Bitstream Vera Sans"
       sodipodi:type="arc" />
    <path
       style="color:#000000;fill:none;stroke:#666666;stroke-width:2;stroke-linecap:butt;stroke-linejoin:miter;stroke-miterlimit:4;stroke-opacity:1;stroke-dasharray:none;stroke-dashoffset:0;marker:none;visibility:visible;display:inline;overflow:visible;font-family:Bitstream Vera Sans"
       d="m 740.1875,704.26173 c -3.65928,0 -6.625,2.96573 -6.625,6.625 0,2.60756 1.55907,4.79275 3.75,5.875 l 0,8.46875 c 0,0 0,0.0356 0,0.0625 0,0.81397 1.28582,1.46875 2.875,1.46875 1.58917,0 2.875,-0.65478 2.875,-1.46875 l 0,-0.0625 0,-8.4375 c 2.21044,-1.0752 3.75,-3.28439 3.75,-5.90625 0,-3.65927 -2.96572,-6.625 -6.625,-6.625 z"
       id="path4659"
       sodipodi:nodetypes="ccccccccccc"
       inkscape:connector-curvature="0" />
    <path
       style="color:#000000;fill:url(#linearGradient4329);fill-opacity:1;fill-rule:evenodd;stroke:none;stroke-width:1px;marker:none;visibility:visible;display:inline;overflow:visible;font-family:Bitstream Vera Sans"
       d="m 745.15625,725.04298 c 0,0 1.1875,4.78125 1.1875,4.78125 0.40625,1.46875 -1.98486,3.4375 -6.15625,3.4375 -4.14001,0 -6.4375,-1.9375 -6.21875,-3.03125 0,0 1.28125,-5.1875 1.28125,-5.1875 l 9.90625,0 z"
       id="path5026"
       sodipodi:nodetypes="cczccc"
       inkscape:connector-curvature="0" />
    <path
       sodipodi:type="arc"
       style="color:#000000;fill:#e4e4e4;fill-opacity:1;fill-rule:evenodd;stroke:none;stroke-width:1px;marker:none;visibility:visible;display:inline;overflow:visible;font-family:Bitstream Vera Sans"
       id="path4345"
       sodipodi:cx="24.57196"
       sodipodi:cy="28.377787"
       sodipodi:rx="7.2478447"
       sodipodi:ry="3.7123106"
       d="m 31.819805,28.377787 c 0,2.050252 -3.24497,3.71231 -7.247845,3.71231 -4.002874,0 -7.247844,-1.662058 -7.247844,-3.71231 0,-2.050253 3.24497,-3.712311 7.247844,-3.712311 4.002875,0 7.247845,1.662058 7.247845,3.712311 z"
       transform="matrix(0.682927,0,0,0.682927,723.41611,705.82115)" />
    <path
       style="color:#000000;fill:url(#linearGradient4331);fill-opacity:1;fill-rule:evenodd;stroke:none;stroke-width:1px;marker:none;visibility:visible;display:inline;overflow:visible;font-family:Bitstream Vera Sans"
       d="m 740.1875,709.19923 c -1.58918,0 -2.875,0.65479 -2.875,1.46875 0,0.0269 0.0597,0.036 0.0625,0.0625 l -0.0625,0 0,13.875 0.0625,0 c -0.003,0.0265 -0.0625,0.0356 -0.0625,0.0625 0,0.81397 1.28582,1.46875 2.875,1.46875 1.58917,0 2.875,-0.65478 2.875,-1.46875 0,-0.0269 -0.0597,-0.036 -0.0625,-0.0625 l 0.0625,0 0,-13.875 -0.0625,0 c 0.003,-0.0265 0.0625,-0.0356 0.0625,-0.0625 0,-0.81396 -1.28583,-1.46875 -2.875,-1.46875 z"
       id="path4347"
       inkscape:connector-curvature="0" />
    <path
       sodipodi:type="arc"
       style="color:#000000;fill:url(#radialGradient4343);fill-opacity:1;fill-rule:evenodd;stroke:none;stroke-width:1.07542491;marker:none;visibility:visible;display:inline;overflow:visible;font-family:Bitstream Vera Sans"
       id="path4641"
       sodipodi:cx="24.395184"
       sodipodi:cy="8.4020205"
       sodipodi:rx="6.6291261"
       sodipodi:ry="6.6291261"
       d="m 31.02431,8.4020205 c 0,3.6611655 -2.967961,6.6291265 -6.629126,6.6291265 -3.661166,0 -6.629127,-2.967961 -6.629127,-6.6291265 0,-3.6611653 2.967961,-6.6291261 6.629127,-6.6291261 3.661165,0 6.629126,2.9679608 6.629126,6.6291261 z"
       transform="matrix(0.967577,0,0,0.967577,716.59273,702.74932)" />
    <g
       id="g5049"
       transform="matrix(1,0,0,0.84966,716.43566,708.14218)">
      <path
         sodipodi:type="arc"
         style="color:#000000;fill:url(#linearGradient4345);fill-opacity:1;fill-rule:evenodd;stroke:none;stroke-width:1.07542491;marker:none;visibility:visible;display:inline;overflow:visible;font-family:Bitstream Vera Sans"
         id="path5039"
         sodipodi:cx="24.395184"
         sodipodi:cy="8.4020205"
         sodipodi:rx="6.6291261"
         sodipodi:ry="6.6291261"
         d="m 31.02431,8.4020205 c 0,3.6611655 -2.967961,6.6291265 -6.629126,6.6291265 -3.661166,0 -6.629127,-2.967961 -6.629127,-6.6291265 0,-3.6611653 2.967961,-6.6291261 6.629127,-6.6291261 3.661165,0 6.629126,2.9679608 6.629126,6.6291261 z"
         transform="matrix(0.510331,0,0,0.354752,-2.87767,29.41695)" />
      <path
         transform="matrix(0.430193,0,0,0.299045,-0.922674,29.60375)"
         d="m 31.02431,8.4020205 c 0,3.6611655 -2.967961,6.6291265 -6.629126,6.6291265 -3.661166,0 -6.629127,-2.967961 -6.629127,-6.6291265 0,-3.6611653 2.967961,-6.6291261 6.629127,-6.6291261 3.661165,0 6.629126,2.9679608 6.629126,6.6291261 z"
         sodipodi:ry="6.6291261"
         sodipodi:rx="6.6291261"
         sodipodi:cy="8.4020205"
         sodipodi:cx="24.395184"
         id="path5045"
         style="color:#000000;fill:url(#linearGradient4347);fill-opacity:1;fill-rule:evenodd;stroke:none;stroke-width:1.07542491;marker:none;visibility:visible;display:inline;overflow:visible;font-family:Bitstream Vera Sans"
         sodipodi:type="arc" />
    </g>
    <path
       style="opacity:0.52571429;color:#000000;fill:none;stroke:url(#linearGradient4333);stroke-width:0.99999976px;stroke-linecap:butt;stroke-linejoin:miter;stroke-miterlimit:4;stroke-opacity:1;stroke-dasharray:none;stroke-dashoffset:0;marker:none;visibility:visible;display:inline;overflow:visible;font-family:Bitstream Vera Sans"
       d="m 740.18862,704.98987 c -3.28487,0 -5.94349,2.68761 -5.94349,5.97248 0,2.31277 1.66002,4.26294 3.58867,5.24767 l 0,7.12197 c -0.86724,0.39539 -2.15313,1.04319 -2.16803,1.68157 0,0 -1.24669,5.14525 -1.24669,5.14525 -0.20295,1.01474 1.92859,2.81228 5.76954,2.81228 3.87007,0 6.08846,-1.82653 5.71155,-3.18919 l -1.21769,-4.85532 c -0.016,-0.68377 -1.22568,-1.11189 -2.20153,-1.50761 l 0,-7.20895 c 1.92864,-0.98473 3.68016,-2.9349 3.68016,-5.24767 0,-3.28487 -2.68761,-5.97248 -5.97249,-5.97248 z"
       id="path2204"
       sodipodi:nodetypes="ccccccccccccc"
       inkscape:connector-curvature="0" />
  </g>
  <text
     xml:space="preserve"
     style="font-size:40px;font-style:normal;font-weight:normal;line-height:125%;letter-spacing:0px;word-spacing:0px;fill:#000000;fill-opacity:1;stroke:none;font-family:Sans"
     x="594.28571"
     y="735.21936"
     id="text4409"
     sodipodi:linespacing="125%"
     inkscape:export-filename="/Users/shorn/dev/selenium.x/gfx/Selenium_x.png"
     inkscape:export-xdpi="55.738682"
     inkscape:export-ydpi="55.738682"><tspan
       sodipodi:role="line"
       id="tspan4411"></tspan></text>
</svg>
